<?xml version="1.0" encoding="utf-8"?>
<!-- Generator: Adobe Illustrator 24.1.2, SVG Export Plug-In . SVG Version: 6.00 Build 0)  -->
<svg version="1.1" id="Capa_1" xmlns="http://www.w3.org/2000/svg" xmlns:xlink="http://www.w3.org/1999/xlink" x="0px" y="0px"
	 viewBox="0 0 464.8 384.4" style="enable-background:new 0 0 464.8 384.4;" xml:space="preserve">
<style type="text/css">
	.st0{fill:#0172B1;}
	.st1{fill:#FFFFFF;}
	.st2{fill:#3CBFBD;}
	.st3{stroke:#000000;stroke-width:2;stroke-miterlimit:10;}
	.st4{stroke:#000000;stroke-width:3;stroke-miterlimit:10;}
	.st5{fill:#FAFAFA;}
	.st6{clip-path:url(#SVGID_2_);}
	.st7{fill:url(#path3462_1_);}
	.st8{clip-path:url(#SVGID_4_);}
	.st9{fill:#777BB3;}
	.st10{clip-path:url(#SVGID_6_);}
	.st11{fill:#FFFFFF;stroke:#020202;stroke-width:4;stroke-miterlimit:10;}
	.st12{fill:#7759A6;stroke:#020202;stroke-width:3;stroke-miterlimit:10;}
	.st13{fill:#F2F2F2;stroke:#020202;stroke-width:3;stroke-linecap:round;stroke-linejoin:round;stroke-miterlimit:10;}
	.st14{fill:#606060;}
</style>
<circle class="st0" cx="233" cy="192.2" r="144.9"/>
<path class="st1" d="M352.1,266.3c2.1,0,3.8-1.7,3.8-3.8V99.8c0-2.1-1.7-3.8-3.8-3.8H113.8c-2.1,0-3.8,1.7-3.8,3.8v162.7
	c0,2.1,1.7,3.8,3.8,3.8H352.1z"/>
<path d="M352.1,90.1H113.8c-5.4,0-9.8,4.4-9.8,9.8v162.7c0,5.4,4.4,9.8,9.8,9.8h90.8v-6h-90.8c-2.1,0-3.8-1.7-3.8-3.8V99.8
	c0-2.1,1.7-3.8,3.8-3.8H352c2.1,0,3.8,1.7,3.8,3.8v162.7c0,2.1-1.7,3.8-3.8,3.8h-90.8v6H352c5.4,0,9.8-4.4,9.8-9.8V99.8
	C361.8,94.4,357.5,90.1,352.1,90.1L352.1,90.1z"/>
<path class="st1" d="M168.3,291.3v6.2c0,0.2,0.2,0.3,0.4,0.4h128.4c0.2,0,0.3-0.1,0.4-0.3v-6.3c0-0.2-0.1-0.3-0.3-0.4H168.7
	C168.5,291,168.4,291.1,168.3,291.3z"/>
<path d="M261.4,291h35.9c0.2,0,0.3,0.2,0.4,0.4v6.2c0,0.2-0.1,0.3-0.3,0.4H168.7c-0.2,0-0.3-0.1-0.4-0.3l0,0l0,0v-6.3
	c0-0.2,0.2-0.3,0.4-0.4h35.9v-6h-35.9c-3.5,0-6.3,2.8-6.3,6.3v6.2c0,3.5,2.8,6.3,6.3,6.3h128.4c3.5,0,6.3-2.8,6.3-6.3v-6.2
	c0-3.5-2.8-6.3-6.3-6.3h-35.9v6L261.4,291L261.4,291z"/>
<rect x="210.6" y="272.2" class="st1" width="44.7" height="12.8"/>
<path d="M261.4,266.3h-56.6V291h56.6V266.3z M255.4,285h-44.7v-12.8h44.7V285z"/>
<path class="st2" d="M339.5,298.6c1-0.1,1.9-0.1,2.9,0c2.7,0.4,4.4-0.5,5.2-3.3c1.1-4,3.3-6.8,7.7-7.6c0.7-0.2,1.3-0.5,1.9-0.9
	c1.1-0.7,2.4-0.7,3.5,0c5.3,3.5,9.4,2.3,13.1-2.7c1.3-1.7,2.3-2.9,1.1-5c-2.2-3.9-3-7.9-0.2-11.9c0.2-0.3,0.3-0.5,0.3-0.8
	c0.2-1.6,1.3-2.9,2.9-3.2c6-1.4,8-5,7.2-11c-0.4-2.5-0.7-4.2-3.3-4.9c-4-1.1-7.1-3.3-7.9-7.8c-0.1-0.4-0.3-0.8-0.5-1.1
	c-1-1.3-1.1-3.2-0.2-4.6c3.3-5.1,1.9-8.9-2.7-12.5c-2-1.6-3.4-2.2-5.8-1.1c-2,0.9-4.3,2.7-6.6,1.9c-4.4-1.6-9.3-2.7-10.4-8.4
	c-0.6-3.1-2.7-3.6-5.7-3.8c-5.5-0.5-8.6,1.2-10.2,6.6c-1.2,3.8-8.9,6.9-12.5,5c-4.7-2.6-7.9-1.8-11.4,2.3c-2.2,2.6-2.9,4.4-1.4,7.4
	c0.9,1.8,2.4,3.7,1.6,5.7c-1.7,4.3-2.8,9.3-8.5,10.4c-0.5,0.1-0.9,0.5-1.4,0.6c-1.5,0.3-2.5,1.7-2.3,3.2v0.2c0.2,1.2,0.2,2.4,0,3.7
	c-0.8,4.1,1,6.1,4.9,7.6c5.5,1.9,8.4,8,6.5,13.5c-0.1,0.4-0.3,0.8-0.5,1.2c-1.8,3.8-0.9,6,1.9,8.9c3.1,3.3,5.7,3.7,9.7,1.9
	c5.4-2.3,11.6,0.2,13.9,5.6l0.1,0.2C333.7,297.5,335.6,299.9,339.5,298.6z"/>
<path class="st3" d="M337.6,300.2c-4.2,0-5.8-4.4-6.5-6.2c-0.9-2.4-2.8-4.3-5.2-5.2c-2.3-1-4.9-0.9-7.1,0.1
	c-4.6,2.1-7.7,1.5-11.1-2.1c-2.9-3.1-4.2-5.8-2.1-10.3c2.3-4.6,0.4-10.2-4.2-12.5c-0.4-0.2-0.7-0.3-1.1-0.5
	c-3.2-1.2-6.7-3.3-5.6-8.9c0.1-1.1,0.1-2.2,0-3.3c-0.4-2.2,1-4.2,3.1-4.7l0,0c0.1-0.1,0.3-0.1,0.4-0.2c0.3-0.2,0.7-0.3,1.1-0.4
	c4.3-0.8,5.5-4.1,7-7.9c0.2-0.6,0.4-1.2,0.7-1.7c0.4-1.1-0.3-2.3-1-3.6c-0.2-0.4-0.4-0.7-0.6-1.1c-1.8-3.7-0.8-6.1,1.6-8.8
	c3.9-4.5,7.8-5.3,12.9-2.5c1.3,0.7,3.8,0.6,6.2-0.4s4.1-2.5,4.5-3.9c1.8-5.7,5.3-8,11.5-7.4c2.7,0.3,6,0.6,6.8,4.8
	c0.9,4.5,4.3,5.7,8.3,7l1.4,0.5c1.3,0.5,2.7-0.3,4.3-1.2c0.5-0.3,0.9-0.5,1.4-0.7c3.2-1.5,5.1-0.3,7.1,1.2c5.4,4.3,6.4,8.9,2.9,14.2
	c-0.7,1-0.6,2.4,0.2,3.3c0.3,0.5,0.6,1,0.7,1.6c0.6,3.6,2.8,5.6,7,6.8c3.5,1,3.8,3.6,4.1,6c0.9,6.9-1.7,10.9-8.1,12.3
	c-1.1,0.2-1.9,1.2-1.9,2.3c-0.1,0.5-0.3,0.9-0.5,1.3c-2.2,3.1-2.1,6.4,0.2,10.6c1.5,2.7,0.2,4.5-1,6.1l-0.2,0.2
	c-4.2,5.7-9.1,6.7-14.8,3c-0.7-0.5-1.5-0.5-2.2,0l-0.4,0.3c-0.6,0.4-1.2,0.6-1.9,0.8c-3.5,0.6-5.6,2.8-6.7,6.7
	c-0.9,3.3-3.1,4.7-6.5,4.1c-0.4,0-0.9,0-1.3,0h-1.4C339,300,338.3,300.1,337.6,300.2z M322.3,285.6c1.5,0,3.1,0.3,4.5,0.9
	c3,1.2,5.4,3.6,6.6,6.6c1.8,4.6,3.5,5.1,5.7,4.4l0.2-0.1h1.5c0.6,0,1.2,0,1.8,0.1c2.2,0.4,3.2-0.3,3.8-2.4c1.3-4.9,4.2-7.7,8.6-8.5
	c0.4-0.1,0.7-0.3,1-0.5l0.5-0.3c1.4-0.9,3.3-0.9,4.7,0.1c4.6,3,8,2.3,11.4-2.4l0.2-0.2c1.2-1.7,1.6-2.2,0.9-3.4
	c-2.8-5-2.8-9.3-0.1-13.2c0.1-0.1,0.1-0.3,0.1-0.4c0.3-2.1,1.8-3.7,3.8-4.2c5.1-1.2,7-4,6.2-9.6c-0.4-2.6-0.6-3.4-2.4-3.9
	c-5.1-1.4-8-4.3-8.8-8.8c-0.1-0.2-0.2-0.4-0.3-0.6c-1.3-1.8-1.4-4.2-0.2-6c2.8-4.2,2.1-7.4-2.4-10.9c-1.9-1.5-2.7-1.8-4.5-0.9
	c-0.4,0.2-0.8,0.4-1.3,0.7c-1.7,0.9-3.9,2.1-6.2,1.3l-1.4-0.5c-4.1-1.4-8.8-3-9.9-8.9c-0.4-2.1-1.4-2.5-4.6-2.9
	c-5.1-0.5-7.5,1-8.9,5.7c-0.6,2.1-2.9,4.2-6,5.4c-3.1,1.2-6.3,1.4-8.3,0.3c-4.1-2.2-6.7-1.7-9.9,2c-2.1,2.4-2.4,3.8-1.2,6.1
	c0.2,0.3,0.4,0.6,0.5,1c0.9,1.6,2,3.6,1.2,5.7c-0.2,0.6-0.4,1.1-0.6,1.7c-1.5,3.9-3.1,8.4-8.8,9.5c-0.1,0-0.3,0.1-0.4,0.2
	c-0.3,0.2-0.6,0.3-0.9,0.4c-1.2,0.3-1.5,0.8-1.4,2c0.2,1.3,0.2,2.7,0,4c-0.6,3.2,0.5,4.8,4.1,6.2c6.1,2.1,9.4,8.8,7.2,15l0,0l0,0
	c-0.2,0.5-0.3,0.9-0.6,1.3c-1.4,3-1.1,4.6,1.6,7.5s4.7,3.3,8.3,1.6C319.2,285.9,320.7,285.6,322.3,285.6L322.3,285.6z"/>
<path class="st1" d="M321,254.1c-0.1,10.6,8.5,19.3,19.1,19.4s19.3-8.5,19.4-19.1s-8.5-19.3-19.1-19.4h-0.3
	c-10.5-0.1-19,8.3-19.2,18.7v0.4H321z"/>
<path class="st4" d="M340.2,274.7c-11.3-0.4-20.2-9.8-19.8-21.1c0.3-10.8,9-19.5,19.8-19.8l0,0c11.3,0,20.5,9.1,20.5,20.4
	C360.8,265.5,351.6,274.7,340.2,274.7L340.2,274.7z M340.2,236.2L340.2,236.2c-9.7-0.2-17.7,7.5-18,17.2v0.7l0,0
	c-0.2,9.8,7.5,17.9,17.3,18.1l0,0h0.7c9.9,0,18-8.1,18-18S350.2,236.2,340.2,236.2L340.2,236.2z"/>
<path class="st5" d="M247,223h0.3c1.2,0,2.2-0.8,2.3-2c0.3-1.8-0.2-3.7-1.4-5.1c-1.5-1.5-3.5-2.3-5.6-2.1c-4.5-0.3-8.7,1.9-11.2,5.6
	c-0.8,1-0.5,2.5,0.5,3.2c1,0.8,2.5,0.5,3.2-0.5l0,0c1.6-2.5,4.4-4,7.4-3.7c0.7-0.1,1.5,0.1,2.1,0.6c0.3,0.4,0.4,1,0.3,1.5
	C244.8,221.7,245.7,222.9,247,223L247,223z"/>
<g>
	<g>
		<defs>
			<path id="SVGID_1_" d="M140.6,181.8c0,26.7,41.1,48.3,91.8,48.3l0,0c50.7,0,91.8-21.6,91.8-48.3l0,0c0-26.7-41.1-48.3-91.8-48.3
				l0,0C181.7,133.5,140.6,155.1,140.6,181.8"/>
		</defs>
		<clipPath id="SVGID_2_">
			<use xlink:href="#SVGID_1_"  style="overflow:visible;"/>
		</clipPath>
		<g id="g3442" class="st6">
			<g id="g3448">
				<g id="g3450">
					
						<radialGradient id="path3462_1_" cx="-306.3715" cy="732.0667" r="0.2656" gradientTransform="matrix(453.8224 0 0 -453.8224 139233.9688 332378.7188)" gradientUnits="userSpaceOnUse">
						<stop  offset="0" style="stop-color:#AEB2D5"/>
						<stop  offset="0.3" style="stop-color:#AEB2D5"/>
						<stop  offset="0.75" style="stop-color:#484C89"/>
						<stop  offset="1" style="stop-color:#484C89"/>
					</radialGradient>
					<path id="path3462" class="st7" d="M140.6,181.8c0,26.7,41.1,48.3,91.8,48.3l0,0c50.7,0,91.8-21.6,91.8-48.3l0,0
						c0-26.7-41.1-48.3-91.8-48.3l0,0C181.7,133.5,140.6,155.1,140.6,181.8"/>
				</g>
			</g>
		</g>
	</g>
	<g>
		<defs>
			<rect id="SVGID_3_" x="136.8" y="128" width="191.2" height="107.6"/>
		</defs>
		<clipPath id="SVGID_4_">
			<use xlink:href="#SVGID_3_"  style="overflow:visible;"/>
		</clipPath>
		<g id="g3466" class="st8">
			<g id="g3472" transform="translate(288,27.3594)">
				<path id="path3474" class="st9" d="M-55.6,199.1c48.7,0,88.2-20,88.2-44.7c0-24.7-39.5-44.7-88.2-44.7s-88.2,20-88.2,44.7
					C-143.8,179.1-104.3,199.1-55.6,199.1"/>
			</g>
		</g>
	</g>
	<g>
		<defs>
			<rect id="SVGID_5_" x="136.8" y="128" width="191.2" height="107.6"/>
		</defs>
		<clipPath id="SVGID_6_">
			<use xlink:href="#SVGID_5_"  style="overflow:visible;"/>
		</clipPath>
		<g id="g3478" class="st10">
			<g id="g3484" transform="translate(161.7344,145.3066)">
				<path id="path3486" d="M28.7,42c4,0,7-0.7,8.9-2.2c1.9-1.4,3.2-3.9,3.8-7.4c0.6-3.3,0.4-5.5-0.7-6.8c-1.1-1.3-3.6-1.9-7.3-1.9
					h-6.4L23.5,42H28.7z M7.8,64.5c-0.3,0-0.6-0.1-0.8-0.4c-0.2-0.2-0.3-0.5-0.2-0.8L16.2,15c0.1-0.5,0.5-0.8,1-0.8h20.3
					c6.4,0,11.1,1.7,14.1,5.1c3,3.4,3.9,8.2,2.7,14.2c-0.5,2.5-1.3,4.7-2.4,6.8c-1.1,2-2.7,3.9-4.5,5.6c-2.2,2.1-4.7,3.5-7.4,4.4
					c-2.7,0.9-6.1,1.3-10.1,1.3h-8.2l-2.3,12.1c-0.1,0.5-0.5,0.8-1,0.8H7.8z"/>
			</g>
			<g id="g3488" transform="translate(159.2236,197.3071)">
				<path id="path3490" class="st1" d="M30.4-27.2H36c4.5,0,6,1,6.5,1.6c0.9,1,1,3,0.5,5.9c-0.6,3.2-1.8,5.5-3.5,6.8
					c-1.7,1.3-4.5,2-8.3,2h-4L30.4-27.2z M40-38.8H19.7c-1,0-1.8,0.7-2,1.6L8.4,11.2c-0.1,0.6,0,1.2,0.4,1.6
					c0.4,0.5,0.9,0.7,1.5,0.7h10.5c1,0,1.8-0.7,2-1.6L25,0.7h7.4c4.2,0,7.7-0.5,10.5-1.4c2.8-0.9,5.4-2.5,7.8-4.6
					c1.9-1.8,3.5-3.7,4.7-5.9c1.2-2.1,2-4.5,2.5-7.1c1.2-6.3,0.2-11.4-3-15.1C51.7-37,46.7-38.8,40-38.8 M24.8-9h6.4
					c4.2,0,7.4-0.8,9.5-2.4c2.1-1.6,3.5-4.3,4.2-8c0.7-3.6,0.4-6.1-1-7.6c-1.3-1.5-4-2.2-8-2.2h-7.2L24.8-9 M40-36.9
					c6.1,0,10.5,1.6,13.3,4.8c2.8,3.2,3.6,7.7,2.5,13.4c-0.5,2.4-1.2,4.5-2.3,6.5c-1.1,2-2.5,3.7-4.3,5.4c-2.1,2-4.4,3.4-7,4.2
					c-2.6,0.8-5.8,1.3-9.8,1.3h-9l-2.5,12.9H10.3l9.4-48.4H40"/>
			</g>
			<g id="g3492" transform="translate(311.583,116.3066)">
				<path id="path3494" d="M-71.4,80.7c-0.3,0-0.6-0.1-0.8-0.4c-0.2-0.2-0.3-0.5-0.2-0.8l4.2-21.4c0.4-2,0.3-3.5-0.3-4.1
					c-0.4-0.4-1.4-1-4.5-1h-7.5l-5.2,26.9c-0.1,0.5-0.5,0.8-1,0.8h-10.5c-0.3,0-0.6-0.1-0.8-0.4c-0.2-0.2-0.3-0.5-0.2-0.8l9.4-48.4
					c0.1-0.5,0.5-0.8,1-0.8h10.5c0.3,0,0.6,0.1,0.8,0.4c0.2,0.2,0.3,0.5,0.2,0.8l-2.3,11.7h8.1c6.2,0,10.4,1.1,12.8,3.3
					c2.5,2.3,3.3,5.9,2.3,10.9l-4.4,22.5c-0.1,0.5-0.5,0.8-1,0.8H-71.4z"/>
			</g>
			<g id="g3496" transform="translate(293.6611,271.0571)">
				<path id="path3498" class="st1" d="M-59.4-125.5h-10.5c-1,0-1.8,0.7-2,1.6l-9.4,48.4c-0.1,0.6,0,1.2,0.4,1.6
					c0.4,0.5,0.9,0.7,1.5,0.7h10.5c1,0,1.8-0.7,2-1.6l5.1-26.1h6.7c3.1,0,3.8,0.7,3.8,0.7c0.2,0.2,0.4,1.1,0,3.2l-4.2,21.4
					c-0.1,0.6,0,1.2,0.4,1.6c0.4,0.5,0.9,0.7,1.5,0.7h10.6c1,0,1.8-0.7,2-1.6l4.4-22.5c1-5.3,0.1-9.3-2.6-11.8
					c-2.6-2.4-7-3.6-13.5-3.6h-6.9l2-10.5c0.1-0.6,0-1.2-0.4-1.6C-58.2-125.2-58.8-125.5-59.4-125.5 M-59.4-123.5l-2.5,12.9h9.3
					c5.9,0,9.9,1,12.1,3.1c2.2,2,2.9,5.4,2,9.9l-4.4,22.5h-10.6l4.2-21.4c0.5-2.4,0.3-4.1-0.5-5c-0.8-0.9-2.6-1.3-5.2-1.3h-8.4
					l-5.4,27.7h-10.5l9.4-48.4H-59.4"/>
			</g>
			<g id="g3500" transform="translate(409.5498,145.3066)">
				<path id="path3502" d="M-136.8,42c4,0,7-0.7,8.9-2.2c1.9-1.4,3.2-3.9,3.8-7.4c0.6-3.3,0.4-5.5-0.7-6.8c-1.1-1.3-3.6-1.9-7.3-1.9
					h-6.4L-142,42H-136.8z M-157.7,64.5c-0.3,0-0.6-0.1-0.8-0.4c-0.2-0.2-0.3-0.5-0.2-0.8l9.4-48.4c0.1-0.5,0.5-0.8,1-0.8h20.3
					c6.4,0,11.1,1.7,14.1,5.1c3,3.4,3.9,8.2,2.7,14.2c-0.5,2.5-1.3,4.7-2.4,6.8c-1.1,2-2.7,3.9-4.5,5.6c-2.2,2.1-4.7,3.5-7.4,4.4
					c-2.7,0.9-6.1,1.3-10.1,1.3h-8.2l-2.3,12.1c-0.1,0.5-0.5,0.8-1,0.8H-157.7z"/>
			</g>
			<g id="g3504" transform="translate(407.0391,197.3071)">
				<path id="path3506" class="st1" d="M-135.1-27.2h5.6c4.5,0,6,1,6.5,1.6c0.9,1,1,3,0.5,5.9c-0.6,3.2-1.8,5.5-3.5,6.8
					c-1.7,1.3-4.5,2-8.3,2h-4L-135.1-27.2z M-125.5-38.8h-20.3c-1,0-1.8,0.7-2,1.6l-9.4,48.4c-0.1,0.6,0,1.2,0.4,1.6
					c0.4,0.5,0.9,0.7,1.5,0.7h10.5c1,0,1.8-0.7,2-1.6l2.2-11.3h7.4c4.2,0,7.7-0.5,10.5-1.4c2.8-0.9,5.4-2.5,7.8-4.6
					c1.9-1.8,3.5-3.7,4.7-5.9c1.2-2.1,2-4.5,2.5-7.1c1.2-6.3,0.2-11.4-3-15.1C-113.9-37-118.9-38.8-125.5-38.8 M-140.7-9h6.4
					c4.2,0,7.4-0.8,9.5-2.4c2.1-1.6,3.5-4.3,4.2-8c0.7-3.6,0.4-6.1-1-7.6c-1.3-1.5-4-2.2-8-2.2h-7.2L-140.7-9 M-125.5-36.9
					c6.1,0,10.5,1.6,13.3,4.8c2.8,3.2,3.6,7.7,2.5,13.4c-0.5,2.4-1.2,4.5-2.3,6.5c-1.1,2-2.5,3.7-4.3,5.4c-2.1,2-4.4,3.4-7,4.2
					c-2.6,0.8-5.8,1.3-9.8,1.3h-9l-2.5,12.9h-10.5l9.4-48.4H-125.5"/>
			</g>
		</g>
	</g>
</g>
<g>
	<path class="st11" d="M141.5,166.6H87.8c-5.2,0-9.5-4.2-9.5-9.5V84.5c0-5.2,4.2-9.5,9.5-9.5H132L151,93.9v63.1
		C151,162.3,146.7,166.6,141.5,166.6L141.5,166.6z M141.5,166.6"/>
	<path class="st12" d="M78.4,141.3H151v15.8c0,5.2-4.2,9.5-9.5,9.5H87.8c-5.2,0-9.5-4.2-9.5-9.5V141.3z M78.4,141.3"/>
	<path class="st13" d="M151,93.9h-9.5c-5.2,0-9.5-4.2-9.5-9.5V75L151,93.9z M151,93.9"/>
	<path class="st14" d="M102,123.9c-0.4,0-0.8-0.2-1.1-0.5l-9.5-9.5c-0.3-0.3-0.5-0.7-0.5-1.1s0.2-0.8,0.5-1.1l9.5-9.5
		c0.6-0.6,1.6-0.6,2.2,0c0.6,0.6,0.6,1.6,0,2.2l-8.4,8.4l8.4,8.4c0.5,0.5,0.6,1.1,0.3,1.7C103.3,123.6,102.7,123.9,102,123.9
		L102,123.9z M102,123.9"/>
	<path class="st14" d="M127.3,123.9c-0.6,0-1.2-0.4-1.5-1c-0.2-0.6-0.1-1.3,0.3-1.7l8.4-8.4l-8.4-8.4c-0.6-0.6-0.6-1.6,0-2.2
		c0.6-0.6,1.6-0.6,2.2,0l9.5,9.5c0.3,0.3,0.5,0.7,0.5,1.1s-0.2,0.8-0.5,1.1l-9.5,9.5C128.1,123.8,127.7,123.9,127.3,123.9
		L127.3,123.9z M127.3,123.9"/>
	<path class="st14" d="M116.2,125.5c0,0.9-0.7,1.6-1.6,1.6c-0.9,0-1.6-0.7-1.6-1.6s0.7-1.6,1.6-1.6
		C115.5,123.9,116.2,124.6,116.2,125.5L116.2,125.5z M116.2,125.5"/>
	<path class="st14" d="M114.7,120.8c-0.9,0-1.6-0.7-1.6-1.6v-6.3c0-0.9,0.7-1.6,1.6-1.6c1.9,0,3.6-1.2,4.4-2.9
		c0.7-1.8,0.3-3.8-1-5.2c-1.4-1.4-3.4-1.8-5.2-1c-1.8,0.7-2.9,2.5-2.9,4.4c0,0.9-0.7,1.6-1.6,1.6s-1.6-0.7-1.6-1.6
		c0-3,1.8-5.8,4.5-7.1c2.8-1.3,6-0.9,8.4,1c2.4,1.9,3.4,5,2.7,8c-0.7,3-3.1,5.2-6.1,5.8v4.9C116.2,120.1,115.5,120.8,114.7,120.8
		L114.7,120.8z M114.7,120.8"/>
	<path class="st1" d="M127.3,146h-3.2c-0.9,0-1.6,0.7-1.6,1.6v12.6c0,0.9,0.7,1.6,1.6,1.6s1.6-0.7,1.6-1.6v-4.7h1.6
		c2.6,0,4.7-2.1,4.7-4.7C132,148.2,129.9,146,127.3,146L127.3,146z M127.3,152.4h-1.6v-3.2h1.6c0.9,0,1.6,0.7,1.6,1.6
		C128.9,151.6,128.2,152.4,127.3,152.4L127.3,152.4z M127.3,152.4"/>
	<path class="st1" d="M102,146h-3.2c-0.9,0-1.6,0.7-1.6,1.6v12.6c0,0.9,0.7,1.6,1.6,1.6s1.6-0.7,1.6-1.6v-4.7h1.6
		c2.6,0,4.7-2.1,4.7-4.7C106.8,148.2,104.7,146,102,146L102,146z M102,152.4h-1.6v-3.2h1.6c0.9,0,1.6,0.7,1.6,1.6
		C103.6,151.6,102.9,152.4,102,152.4L102,152.4z M102,152.4"/>
	<path class="st1" d="M117.8,146c-0.9,0-1.6,0.7-1.6,1.6v4.7h-3.2v-4.7c0-0.9-0.7-1.6-1.6-1.6s-1.6,0.7-1.6,1.6v12.6
		c0,0.9,0.7,1.6,1.6,1.6s1.6-0.7,1.6-1.6v-4.7h3.2v4.7c0,0.9,0.7,1.6,1.6,1.6s1.6-0.7,1.6-1.6v-12.6
		C119.4,146.7,118.7,146,117.8,146L117.8,146z M117.8,146"/>
</g>
</svg>
